<?xml version="1.0" encoding="UTF-8" standalone="no"?>
<!-- Created with Inkscape (http://www.inkscape.org/) -->

<svg
   width="84.496002mm"
   height="84.496002mm"
   viewBox="0 0 84.496002 84.496002"
   version="1.1"
   id="svg5"
   sodipodi:docname="logo3.svg"
   xml:space="preserve"
   inkscape:version="1.2.2 (, )"
   xmlns:inkscape="http://www.inkscape.org/namespaces/inkscape"
   xmlns:sodipodi="http://sodipodi.sourceforge.net/DTD/sodipodi-0.dtd"
   xmlns="http://www.w3.org/2000/svg"
   xmlns:svg="http://www.w3.org/2000/svg"><sodipodi:namedview
     id="namedview7"
     pagecolor="#ffffff"
     bordercolor="#000000"
     borderopacity="0.25"
     inkscape:showpageshadow="2"
     inkscape:pageopacity="0.0"
     inkscape:pagecheckerboard="0"
     inkscape:deskcolor="#d1d1d1"
     inkscape:document-units="mm"
     showgrid="false"
     inkscape:zoom="2"
     inkscape:cx="112.75"
     inkscape:cy="163.25"
     inkscape:window-width="2546"
     inkscape:window-height="1391"
     inkscape:window-x="0"
     inkscape:window-y="0"
     inkscape:window-maximized="0"
     inkscape:current-layer="g361"
     showguides="true"><inkscape:grid
       type="xygrid"
       id="grid1214"
       originx="-18.511179"
       originy="3.3433279" /></sodipodi:namedview><defs
     id="defs2" /><g
     id="g361"
     transform="translate(10.305892,3.3431448)"
     style="display:inline"
     inkscape:label="solvespace"><path
       style="display:inline;fill:none;stroke:#000000;stroke-width:17.0079;stroke-linecap:round;stroke-linejoin:miter;stroke-dasharray:none;stroke-opacity:1;paint-order:markers stroke fill"
       d="m 174.525,118.325 20.044,-11.573 V 83.608 L 174.525,72.035 154.481,83.608"
       id="path1490"
       sodipodi:nodetypes="ccccc"
       inkscape:label="z_bar_outline"
       transform="matrix(0.35277777,0,0,0.35277777,-4.8789166,-4.8789184)" /><path
       stroke-width="0.686"
       stroke-linecap="round"
       stroke-linejoin="round"
       fill="none"
       stroke="#7f4c00"
       d="M 94.349,153.04171 V 222.476 L 74.305,234.049 54.261,222.476 v -69.43429"
       id="path1452"
       style="display:inline;stroke:#000000;stroke-width:17.0079;stroke-linecap:round;stroke-linejoin:miter;stroke-dasharray:none;stroke-opacity:1"
       sodipodi:nodetypes="ccccc"
       transform="matrix(0.35277777,0,0,-0.35277777,-4.8789166,82.688285)"
       inkscape:label="y_bar_outline" /><path
       stroke-width="0.686"
       stroke-linecap="round"
       stroke-linejoin="round"
       fill="none"
       stroke="#7f4c00"
       d="M 114.3922,48.891161 174.525,14.173 194.569,25.746 V 48.89 l -60.13302,34.717068"
       id="path1444"
       style="display:inline;fill:none;fill-opacity:1;stroke:#000000;stroke-width:17.0079;stroke-linecap:round;stroke-linejoin:miter;stroke-dasharray:none;stroke-opacity:1"
       sodipodi:nodetypes="ccccc"
       transform="matrix(0.35277777,0,0,-0.35277777,-4.8789166,82.688285)"
       inkscape:label="x_bar_outline" /><g
       id="g1892"
       inkscape:label="cube"
       style="display:inline"><path
         id="path1100"
         style="display:inline;fill:none;fill-opacity:1;stroke:#000000;stroke-width:6;stroke-linecap:round;stroke-dasharray:none;stroke-opacity:1"
         inkscape:label="cube_outline"
         d="M 21.334037,24.616389 C 14.263066,28.698951 7.1919228,32.781291 0.12086174,36.863703 V 61.358332 C 7.1914979,65.441488 14.262794,69.523541 21.334037,73.605647 28.405598,69.524115 35.476287,65.440964 42.547213,61.358332 V 45.02858 36.863703 l -7.070887,-4.082955 c -4.71408,-2.721444 -9.428204,-5.442915 -14.142289,-8.164359 z" /><path
         id="path2139"
         style="display:inline;fill:#d4ff2a;fill-opacity:1;stroke-width:0.352778"
         d="M 0.12094945,36.863551 V 61.358174 C 7.1915927,65.441334 14.262875,69.523384 21.334125,73.605494 V 49.110861 C 14.263178,45.028231 7.1918977,40.946181 0.12094945,36.863551 Z"
         inkscape:label="cube"
         sodipodi:nodetypes="ccccc" /><path
         style="display:inline;fill:#88aa00;fill-opacity:1;stroke-width:0.352778"
         d="m 42.5473,36.863551 c -7.07103,4.08248 -14.14197,8.16512 -21.213175,12.24731 0,8.16487 0,16.329753 0,24.494633 7.071575,-4.08154 14.142235,-8.16468 21.213175,-12.24732 0,-5.443253 0,-10.886503 0,-16.329753"
         id="path2141"
         inkscape:label="cube_dark" /><path
         style="display:inline;fill:#eeffaa;fill-opacity:1;stroke-width:0.352778"
         d="m 35.47641,32.780591 c -4.71409,-2.72145 -9.42819,-5.44291 -14.142285,-8.16436 -7.070985,4.08257 -14.1421003,8.1649 -21.21317555,12.24732 7.07094825,4.08263 14.14222855,8.16468 21.21317555,12.24731 7.071205,-4.08219 14.142145,-8.16483 21.213175,-12.24731"
         id="path2143"
         inkscape:label="cube_highlight" /></g><g
       id="g1017"
       inkscape:label="z_bar"
       style="display:inline"><path
         style="display:inline;fill:#333333;fill-opacity:1;stroke-width:0.352778"
         d="m 49.6187,40.945981 c 4.71424,-2.72156 9.42754,-5.44366 14.14178,-8.16522 0,-2.72151 0,-5.44302 0,-8.16453 -4.71362,2.72199 -9.42855,5.44263 -14.14178,8.16471"
         id="path1216"
         inkscape:label="z_bar_dark_b" /><path
         id="path1208"
         d="m 14.263239,53.193298 -7.0714033,4.08244 v 8.165386 l 7.0714033,-4.08295 z"
         style="display:inline;fill:#333333;fill-opacity:1;stroke-width:0.352778"
         inkscape:label="z_bar_dark_a" /><path
         id="path1396-4"
         d="m 0.1211093,53.19257 7.0710519,4.082299 -1.716e-4,8.165024 -7.0708803,-4.08296 z"
         style="display:inline;fill:#414141;fill-opacity:1;stroke-width:0.352778"
         inkscape:label="z_bar"
         sodipodi:nodetypes="ccccc" /><path
         style="display:inline;fill:#575757;fill-opacity:1;stroke-width:0.352778"
         d="m 49.6187,32.780591 c 4.7139,-2.72149 9.42803,-5.4426 14.14178,-8.16436 -2.35697,-1.36098 -4.71393,-2.72197 -7.07089,-4.08295 -4.7141,2.72179 -9.4282,5.44359 -14.14229,8.16539"
         id="path17069"
         inkscape:label="z_bar_highlight_b" /><path
         id="path1200"
         d="M 7.1918357,49.110858 0.12094985,53.193298 7.1921093,57.27557 14.263239,53.193298 Z"
         inkscape:label="z_bar_highlight_a"
         style="display:inline;fill:#575757;fill-opacity:1;stroke-width:0.352778"
         sodipodi:nodetypes="ccccc" /></g><g
       id="g884"
       inkscape:label="x_bar"
       style="display:inline"><path
         id="path1396"
         d="m 63.760476,65.441124 -7.070887,4.08244 v 8.16488 l 7.070887,-4.08296 z"
         style="display:inline;fill:#333333;fill-opacity:1;stroke-width:0.352778"
         inkscape:label="x_bar_dark" /><path
         id="path1284"
         inkscape:label="x_bar"
         d="m 28.405528,53.193298 c 0,2.721625 0,5.443251 0,8.164876 9.427642,5.444078 18.856026,10.886873 28.284061,16.33027 0,-2.721627 0,-5.443253 0,-8.16488 C 47.26157,64.080139 37.83359,58.636648 28.405528,53.193298 Z"
         style="display:inline;fill:#414141;fill-opacity:1;stroke-width:0.352778" /><path
         id="path1272"
         style="display:inline;fill:#575757;fill-opacity:1;stroke-width:0.352778"
         inkscape:label="x_bar_highlight"
         d="m 35.47641,49.110861 c -2.35696,1.36081 -4.71392,2.72163 -7.07088,4.08244 9.42806,5.44334 18.85604,10.886843 28.28406,16.330273 2.35696,-1.36081 4.71392,-2.72163 7.07089,-4.08244 -9.42803,-5.44343 -18.856,-10.886933 -28.28407,-16.330273 z" /></g><g
       id="g878"
       inkscape:label="y_bar"
       style="display:inline"><path
         id="path1212"
         d="m 28.405528,4.2035246 -7.071403,4.082436 V 40.945983 l 7.071403,-4.082436 z"
         style="display:inline;fill:#333333;fill-opacity:1;stroke-width:0.352778"
         inkscape:label="y_bar_dark" /><path
         id="path1172"
         d="M 14.263239,4.2035246 V 36.863547 l 7.070886,4.082436 V 8.2859606 Z"
         style="display:inline;fill:#414141;fill-opacity:1;stroke-width:0.352778"
         inkscape:label="y_bar" /><path
         id="path1164"
         style="display:inline;fill:#575757;fill-opacity:1;stroke-width:0.352778"
         inkscape:label="y_bar_highlight"
         d="m 21.334125,0.12108551 -7.070886,4.08243909 7.070886,4.082436 7.071403,-4.082436 z" /></g><g
       id="g758"
       inkscape:label="tee"
       style="display:inline"><path
         stroke-width="0.242006"
         stroke-linecap="round"
         stroke-linejoin="round"
         fill="none"
         stroke="#000000"
         d="m 135.97954,134.86916 -21.21323,-12.24739 v -8.16504 l 7.0712,-4.0821 v -8.166 l 7.071,-4.082001 7.071,4.082001 3e-5,16.3308 7.07108,4.08234 v 8.16504 z"
         id="stroke_on_constraint"
         style="display:inline;stroke-width:6;stroke-linecap:square;stroke-linejoin:miter;stroke-dasharray:none;paint-order:fill markers stroke"
         inkscape:label="tee_outline"
         class="UnoptimicedTransforms"
         sodipodi:nodetypes="ccccccccccc"
         transform="translate(-79.287405,-81.682063)" /><path
         id="path1384-6"
         style="display:inline;fill:#aa8800;stroke:none;stroke-width:0.352778"
         d="m 135.97952,102.20853 -7.07088,4.08243 v 16.33079 l 7.07088,-4.08244"
         sodipodi:nodetypes="cccc"
         inkscape:label="tee_dark_a"
         transform="translate(-79.287405,-81.682063)" /><path
         id="path1394"
         style="display:inline;fill:#aa8800;stroke:none"
         d="m 143.0507,122.62197 -7.0714,4.08244 v 8.16488 l 7.0714,-4.08244 z"
         inkscape:label="tee_dark_b"
         transform="translate(-79.287405,-81.682063)" /><path
         id="path1412"
         style="display:inline;fill:#ffcc00;fill-opacity:1;stroke:none;stroke-width:0.352778"
         d="m 42.550109,36.85757 -7.071162,-4.083274 v 8.16539 l 21.21317,12.24732 v -8.16488 l -7.07088,-4.08244 v -16.3313 l -7.07089,-4.08296"
         sodipodi:nodetypes="cccccccc"
         inkscape:label="tee" /><path
         id="path1360"
         style="display:inline;fill:#ffe680;fill-opacity:1;stroke-width:0.352778"
         d="m 135.9793,118.53953 -7.07089,4.08244 7.07089,4.08244 7.0714,-4.08244 z"
         inkscape:label="tee_highlight_c"
         transform="translate(-79.287405,-81.682063)" /><path
         d="m 121.83739,118.53943 v -8.16505 l -7.07108,4.08235 z"
         fill="#575757"
         id="path1364-9"
         style="display:inline;fill:#ffe680;fill-opacity:1;stroke-width:0.352778"
         inkscape:label="tee_highlight_a"
         transform="translate(-79.287405,-81.682063)" /><path
         id="path1376-0-5"
         style="display:inline;fill:#ffe680;fill-opacity:1;stroke-width:0.352778"
         d="m 128.90851,98.126633 -7.071,4.081997 7.071,4.082 7.071,-4.08208 z"
         sodipodi:nodetypes="ccccc"
         inkscape:label="tee_highlight_b"
         transform="translate(-79.287405,-81.682063)" /></g></g></svg>
